<svg width="1039" height="234" viewBox="0 0 1039 234" fill="none" xmlns="http://www.w3.org/2000/svg">
<g clip-path="url(#clip0_1_7)">
<rect width="1039" height="234" fill="white"/>
<rect x="25" y="20" width="200" height="200" rx="21" fill="#454545"/>
<rect x="40" y="35" width="170" height="170" rx="21" fill="white"/>
<path d="M63.6818 134.818L69.9545 145.523L76.2273 134.818H80.8636L72.4091 147.909L80.8636 161H76.2273L69.9545 150.841L63.6818 161H59.0455L67.3636 147.909L59.0455 134.818H63.6818Z" fill="#454545"/>
<path d="M118.409 154.955C115.545 154.909 112.682 154.364 109.818 153.318C106.955 152.273 104.341 150.511 101.977 148.034C99.6136 145.534 97.7159 142.159 96.2841 137.909C94.8523 133.636 94.1364 128.273 94.1364 121.818C94.1364 115.636 94.7159 110.159 95.875 105.386C97.0341 100.591 98.7159 96.5568 100.92 93.2841C103.125 89.9886 105.784 87.4886 108.898 85.7841C112.034 84.0795 115.568 83.2273 119.5 83.2273C123.409 83.2273 126.886 84.0114 129.932 85.5795C133 87.125 135.5 89.2841 137.432 92.0568C139.364 94.8295 140.614 98.0227 141.182 101.636H132.864C132.091 98.5 130.591 95.8977 128.364 93.8295C126.136 91.7614 123.182 90.7273 119.5 90.7273C114.091 90.7273 109.83 93.0795 106.716 97.7841C103.625 102.489 102.068 109.091 102.045 117.591H102.591C103.864 115.659 105.375 114.011 107.125 112.648C108.898 111.261 110.852 110.193 112.989 109.443C115.125 108.693 117.386 108.318 119.773 108.318C123.773 108.318 127.432 109.318 130.75 111.318C134.068 113.295 136.727 116.034 138.727 119.534C140.727 123.011 141.727 127 141.727 131.5C141.727 135.818 140.761 139.773 138.83 143.364C136.898 146.932 134.182 149.773 130.682 151.886C127.205 153.977 123.114 155 118.409 154.955ZM118.409 147.455C121.273 147.455 123.841 146.739 126.114 145.307C128.409 143.875 130.216 141.955 131.534 139.545C132.875 137.136 133.545 134.455 133.545 131.5C133.545 128.614 132.898 125.989 131.602 123.625C130.33 121.239 128.568 119.341 126.318 117.932C124.091 116.523 121.545 115.818 118.682 115.818C116.523 115.818 114.511 116.25 112.648 117.114C110.784 117.955 109.148 119.114 107.739 120.591C106.352 122.068 105.261 123.761 104.466 125.67C103.67 127.557 103.273 129.545 103.273 131.636C103.273 134.409 103.92 137 105.216 139.409C106.534 141.818 108.33 143.761 110.602 145.239C112.898 146.716 115.5 147.455 118.409 147.455ZM153.497 139.682V132.727L184.179 84.1818H189.224V94.9545H185.815L162.634 131.636V132.182H203.952V139.682H153.497ZM186.361 154V137.568V134.33V84.1818H194.406V154H186.361Z" fill="#454545"/>
<path d="M354.42 111.182H340.239C339.693 108.152 338.678 105.485 337.193 103.182C335.708 100.879 333.89 98.9242 331.739 97.3182C329.587 95.7121 327.178 94.5 324.511 93.6818C321.875 92.8636 319.072 92.4545 316.102 92.4545C310.739 92.4545 305.936 93.803 301.693 96.5C297.481 99.197 294.148 103.152 291.693 108.364C289.269 113.576 288.057 119.939 288.057 127.455C288.057 135.03 289.269 141.424 291.693 146.636C294.148 151.848 297.496 155.788 301.739 158.455C305.981 161.121 310.754 162.455 316.057 162.455C318.996 162.455 321.784 162.061 324.42 161.273C327.087 160.455 329.496 159.258 331.648 157.682C333.799 156.106 335.617 154.182 337.102 151.909C338.617 149.606 339.663 146.97 340.239 144L354.42 144.045C353.663 148.621 352.193 152.833 350.011 156.682C347.86 160.5 345.087 163.803 341.693 166.591C338.33 169.348 334.481 171.485 330.148 173C325.814 174.515 321.087 175.273 315.966 175.273C307.905 175.273 300.723 173.364 294.42 169.545C288.117 165.697 283.148 160.197 279.511 153.045C275.905 145.894 274.102 137.364 274.102 127.455C274.102 117.515 275.92 108.985 279.557 101.864C283.193 94.7121 288.163 89.2273 294.466 85.4091C300.769 81.5606 307.936 79.6364 315.966 79.6364C320.905 79.6364 325.511 80.3485 329.784 81.7727C334.087 83.1667 337.951 85.2273 341.375 87.9545C344.799 90.6515 347.633 93.9545 349.875 97.8636C352.117 101.742 353.633 106.182 354.42 111.182ZM399.545 175.409C393 175.409 387.288 173.909 382.409 170.909C377.53 167.909 373.742 163.712 371.045 158.318C368.348 152.924 367 146.621 367 139.409C367 132.167 368.348 125.833 371.045 120.409C373.742 114.985 377.53 110.773 382.409 107.773C387.288 104.773 393 103.273 399.545 103.273C406.091 103.273 411.803 104.773 416.682 107.773C421.561 110.773 425.348 114.985 428.045 120.409C430.742 125.833 432.091 132.167 432.091 139.409C432.091 146.621 430.742 152.924 428.045 158.318C425.348 163.712 421.561 167.909 416.682 170.909C411.803 173.909 406.091 175.409 399.545 175.409ZM399.591 164C403.833 164 407.348 162.879 410.136 160.636C412.924 158.394 414.985 155.409 416.318 151.682C417.682 147.955 418.364 143.848 418.364 139.364C418.364 134.909 417.682 130.818 416.318 127.091C414.985 123.333 412.924 120.318 410.136 118.045C407.348 115.773 403.833 114.636 399.591 114.636C395.318 114.636 391.773 115.773 388.955 118.045C386.167 120.318 384.091 123.333 382.727 127.091C381.394 130.818 380.727 134.909 380.727 139.364C380.727 143.848 381.394 147.955 382.727 151.682C384.091 155.409 386.167 158.394 388.955 160.636C391.773 162.879 395.318 164 399.591 164ZM473.398 175.364C467.761 175.364 462.731 173.924 458.307 171.045C453.913 168.136 450.458 164 447.943 158.636C445.458 153.242 444.216 146.773 444.216 139.227C444.216 131.682 445.473 125.227 447.989 119.864C450.534 114.5 454.019 110.394 458.443 107.545C462.867 104.697 467.883 103.273 473.489 103.273C477.822 103.273 481.307 104 483.943 105.455C486.61 106.879 488.67 108.545 490.125 110.455C491.61 112.364 492.761 114.045 493.58 115.5H494.398V80.9091H507.989V174H494.716V163.136H493.58C492.761 164.621 491.58 166.318 490.034 168.227C488.519 170.136 486.428 171.803 483.761 173.227C481.095 174.652 477.64 175.364 473.398 175.364ZM476.398 163.773C480.307 163.773 483.61 162.742 486.307 160.682C489.034 158.591 491.095 155.697 492.489 152C493.913 148.303 494.625 144 494.625 139.091C494.625 134.242 493.928 130 492.534 126.364C491.14 122.727 489.095 119.894 486.398 117.864C483.701 115.833 480.367 114.818 476.398 114.818C472.307 114.818 468.898 115.879 466.17 118C463.443 120.121 461.383 123.015 459.989 126.682C458.625 130.348 457.943 134.485 457.943 139.091C457.943 143.758 458.64 147.955 460.034 151.682C461.428 155.409 463.489 158.364 466.216 160.545C468.973 162.697 472.367 163.773 476.398 163.773ZM557.477 175.409C550.598 175.409 544.674 173.939 539.705 171C534.765 168.03 530.947 163.864 528.25 158.5C525.583 153.106 524.25 146.788 524.25 139.545C524.25 132.394 525.583 126.091 528.25 120.636C530.947 115.182 534.705 110.924 539.523 107.864C544.371 104.803 550.038 103.273 556.523 103.273C560.462 103.273 564.28 103.924 567.977 105.227C571.674 106.53 574.992 108.576 577.932 111.364C580.871 114.152 583.189 117.773 584.886 122.227C586.583 126.652 587.432 132.03 587.432 138.364V143.182H531.932V133H574.114C574.114 129.424 573.386 126.258 571.932 123.5C570.477 120.712 568.432 118.515 565.795 116.909C563.189 115.303 560.129 114.5 556.614 114.5C552.795 114.5 549.462 115.439 546.614 117.318C543.795 119.167 541.614 121.591 540.068 124.591C538.553 127.561 537.795 130.788 537.795 134.273V142.227C537.795 146.894 538.614 150.864 540.25 154.136C541.917 157.409 544.235 159.909 547.205 161.636C550.174 163.333 553.644 164.182 557.614 164.182C560.189 164.182 562.538 163.818 564.659 163.091C566.78 162.333 568.614 161.212 570.159 159.727C571.705 158.242 572.886 156.409 573.705 154.227L586.568 156.545C585.538 160.333 583.689 163.652 581.023 166.5C578.386 169.318 575.068 171.515 571.068 173.091C567.098 174.636 562.568 175.409 557.477 175.409ZM666.602 110.318C665.723 107.561 664.542 105.091 663.057 102.909C661.602 100.697 659.86 98.8182 657.83 97.2727C655.799 95.697 653.481 94.5 650.875 93.6818C648.299 92.8636 645.466 92.4545 642.375 92.4545C637.133 92.4545 632.405 93.803 628.193 96.5C623.981 99.197 620.648 103.152 618.193 108.364C615.769 113.545 614.557 119.894 614.557 127.409C614.557 134.955 615.784 141.333 618.239 146.545C620.693 151.758 624.057 155.712 628.33 158.409C632.602 161.106 637.466 162.455 642.92 162.455C647.981 162.455 652.39 161.424 656.148 159.364C659.936 157.303 662.86 154.394 664.92 150.636C667.011 146.848 668.057 142.394 668.057 137.273L671.693 137.955H645.057V126.364H681.648V136.955C681.648 144.773 679.981 151.561 676.648 157.318C673.345 163.045 668.769 167.47 662.92 170.591C657.102 173.712 650.436 175.273 642.92 175.273C634.496 175.273 627.102 173.333 620.739 169.455C614.405 165.576 609.466 160.076 605.92 152.955C602.375 145.803 600.602 137.318 600.602 127.5C600.602 120.076 601.633 113.409 603.693 107.5C605.754 101.591 608.648 96.5758 612.375 92.4545C616.133 88.303 620.542 85.1364 625.602 82.9545C630.693 80.7424 636.254 79.6364 642.284 79.6364C647.314 79.6364 651.996 80.3788 656.33 81.8636C660.693 83.3485 664.572 85.4545 667.966 88.1818C671.39 90.9091 674.223 94.1515 676.466 97.9091C678.708 101.636 680.223 105.773 681.011 110.318H666.602ZM728.477 175.409C721.598 175.409 715.674 173.939 710.705 171C705.765 168.03 701.947 163.864 699.25 158.5C696.583 153.106 695.25 146.788 695.25 139.545C695.25 132.394 696.583 126.091 699.25 120.636C701.947 115.182 705.705 110.924 710.523 107.864C715.371 104.803 721.038 103.273 727.523 103.273C731.462 103.273 735.28 103.924 738.977 105.227C742.674 106.53 745.992 108.576 748.932 111.364C751.871 114.152 754.189 117.773 755.886 122.227C757.583 126.652 758.432 132.03 758.432 138.364V143.182H702.932V133H745.114C745.114 129.424 744.386 126.258 742.932 123.5C741.477 120.712 739.432 118.515 736.795 116.909C734.189 115.303 731.129 114.5 727.614 114.5C723.795 114.5 720.462 115.439 717.614 117.318C714.795 119.167 712.614 121.591 711.068 124.591C709.553 127.561 708.795 130.788 708.795 134.273V142.227C708.795 146.894 709.614 150.864 711.25 154.136C712.917 157.409 715.235 159.909 718.205 161.636C721.174 163.333 724.644 164.182 728.614 164.182C731.189 164.182 733.538 163.818 735.659 163.091C737.78 162.333 739.614 161.212 741.159 159.727C742.705 158.242 743.886 156.409 744.705 154.227L757.568 156.545C756.538 160.333 754.689 163.652 752.023 166.5C749.386 169.318 746.068 171.515 742.068 173.091C738.098 174.636 733.568 175.409 728.477 175.409ZM787.102 132.545V174H773.511V104.182H786.557V115.545H787.42C789.027 111.848 791.542 108.879 794.966 106.636C798.42 104.394 802.769 103.273 808.011 103.273C812.769 103.273 816.936 104.273 820.511 106.273C824.087 108.242 826.86 111.182 828.83 115.091C830.799 119 831.784 123.833 831.784 129.591V174H818.193V131.227C818.193 126.167 816.875 122.212 814.239 119.364C811.602 116.485 807.981 115.045 803.375 115.045C800.223 115.045 797.42 115.727 794.966 117.091C792.542 118.455 790.617 120.455 789.193 123.091C787.799 125.697 787.102 128.848 787.102 132.545ZM851.102 174V80.9091H865.148V161.909H907.33V174H851.102ZM922.261 174V104.182H935.852V174H922.261ZM929.125 93.4091C926.761 93.4091 924.731 92.6212 923.034 91.0454C921.367 89.4394 920.534 87.5303 920.534 85.3182C920.534 83.0758 921.367 81.1667 923.034 79.5909C924.731 77.9848 926.761 77.1818 929.125 77.1818C931.489 77.1818 933.504 77.9848 935.17 79.5909C936.867 81.1667 937.716 83.0758 937.716 85.3182C937.716 87.5303 936.867 89.4394 935.17 91.0454C933.504 92.6212 931.489 93.4091 929.125 93.4091ZM955.227 174V80.9091H968.818V115.5H969.636C970.424 114.045 971.561 112.364 973.045 110.455C974.53 108.545 976.591 106.879 979.227 105.455C981.864 104 985.348 103.273 989.682 103.273C995.318 103.273 1000.35 104.697 1004.77 107.545C1009.2 110.394 1012.67 114.5 1015.18 119.864C1017.73 125.227 1019 131.682 1019 139.227C1019 146.773 1017.74 153.242 1015.23 158.636C1012.71 164 1009.26 168.136 1004.86 171.045C1000.47 173.924 995.455 175.364 989.818 175.364C985.576 175.364 982.106 174.652 979.409 173.227C976.742 171.803 974.652 170.136 973.136 168.227C971.621 166.318 970.455 164.621 969.636 163.136H968.5V174H955.227ZM968.545 139.091C968.545 144 969.258 148.303 970.682 152C972.106 155.697 974.167 158.591 976.864 160.682C979.561 162.742 982.864 163.773 986.773 163.773C990.833 163.773 994.227 162.697 996.955 160.545C999.682 158.364 1001.74 155.409 1003.14 151.682C1004.56 147.955 1005.27 143.758 1005.27 139.091C1005.27 134.485 1004.58 130.348 1003.18 126.682C1001.82 123.015 999.758 120.121 997 118C994.273 115.879 990.864 114.818 986.773 114.818C982.833 114.818 979.5 115.833 976.773 117.864C974.076 119.894 972.03 122.727 970.636 126.364C969.242 130 968.545 134.242 968.545 139.091Z" fill="#787878"/>
</g>
<defs>
<clipPath id="clip0_1_7">
<rect width="1039" height="234" fill="white"/>
</clipPath>
</defs>
</svg>
