<svg xmlns="http://www.w3.org/2000/svg" xmlns:xlink="http://www.w3.org/1999/xlink" width="600" height="236.26" viewBox="0 0 600 236.26">
  <defs>
    <clipPath id="clip-path">
      <rect id="Rechteck_3809" data-name="Rechteck 3809" width="599.988" height="236.26" fill="none"/>
    </clipPath>
    <clipPath id="clip-CodeGenLib_logo_negative">
      <rect width="600" height="236.26"/>
    </clipPath>
  </defs>
  <g id="CodeGenLib_logo_negative" clip-path="url(#clip-CodeGenLib_logo_negative)">
    <g id="Gruppe_10546" data-name="Gruppe 10546">
      <g id="Gruppe_10545" data-name="Gruppe 10545" clip-path="url(#clip-path)">
        <path id="Pfad_11082" data-name="Pfad 11082" d="M48.029,30.6a8.523,8.523,0,0,1,7.228-3.621q4.7,0,7.148,2.387,2.423,2.387,2.425,6.885h7.238l.066-.184q.127-7.021-4.422-11.057T55.257,20.976a16.1,16.1,0,0,0-12.535,5.312Q37.9,31.607,37.914,39.8v8.533q0,8.222,4.864,13.505a16.457,16.457,0,0,0,12.691,5.284q7.7,0,12.234-4.177a13.832,13.832,0,0,0,4.4-10.948l-.061-.184H64.831q0,4.528-2.378,6.932t-6.983,2.4a8.757,8.757,0,0,1-7.393-3.617,14.93,14.93,0,0,1-2.7-9.192v-8.6A15,15,0,0,1,48.029,30.6" transform="translate(140.623 77.8)" fill="#fff"/>
        <path id="Pfad_11083" data-name="Pfad 11083" d="M54.836,32.53a6.4,6.4,0,0,1,5.83-3.094A6.544,6.544,0,0,1,66.6,32.53,14.483,14.483,0,0,1,68.558,40.4v.65a14.505,14.505,0,0,1-1.959,7.93,6.466,6.466,0,0,1-2.435,2.293l4.615,4.61a12.987,12.987,0,0,0,3.155-2.59Q76,48.56,76.008,41.049V40.4q0-7.452-4.073-12.21T60.666,23.428q-7.078,0-11.165,4.761a16.077,16.077,0,0,0-3.033,5.387l6.484,6.484a14.469,14.469,0,0,1,1.884-7.53" transform="translate(172.35 86.895)" fill="#fff"/>
        <path id="Pfad_11084" data-name="Pfad 11084" d="M75.421,38.76a10.888,10.888,0,0,0-3.706-3.122,10.455,10.455,0,0,0-4.855-1.1,11.078,11.078,0,0,0-9.611,4.879q-3.412,4.888-3.414,12.865v.65q0,7.261,3.414,11.73A11.337,11.337,0,0,0,66.8,69.133a10.752,10.752,0,0,0,5.26-1.253,10.945,10.945,0,0,0,3.88-3.617l.895,4.219h6.07V20.433H75.421Zm0,20.362a7.655,7.655,0,0,1-2.694,2.891,7.47,7.47,0,0,1-4.021,1.017,6.183,6.183,0,0,1-5.618-2.741,13.441,13.441,0,0,1-1.766-7.355v-.65a16.926,16.926,0,0,1,1.813-8.391,6.031,6.031,0,0,1,5.637-3.221A7.369,7.369,0,0,1,72.718,41.7a7.885,7.885,0,0,1,2.7,2.877Z" transform="translate(199.674 75.786)" fill="#fff"/>
        <path id="Pfad_11085" data-name="Pfad 11085" d="M76.148,23.429a13.267,13.267,0,0,0-10.614,4.728,17.829,17.829,0,0,0-4.111,12.088v1.234q0,7.332,4.111,11.933c2.741,3.075,6.536,4.61,11.415,4.61a21.229,21.229,0,0,0,7.238-1.14,16.036,16.036,0,0,0,5.048-2.807l-2.439-4.9A14.856,14.856,0,0,1,82.656,51.3a16.647,16.647,0,0,1-5.279.739q-4.1,0-6.131-2.557a10.917,10.917,0,0,1-2.152-6.649l.052-.155H89.757V38.649q0-6.936-3.447-11.076T76.148,23.429M82.364,37.2H69.329l-.052-.155a10.424,10.424,0,0,1,2.18-5.5,5.793,5.793,0,0,1,4.69-2.11,5.545,5.545,0,0,1,4.728,1.982,8.441,8.441,0,0,1,1.488,5.194Z" transform="translate(227.818 86.898)" fill="#fff"/>
        <path id="Pfad_11086" data-name="Pfad 11086" d="M86.583,48.361h12.05V59.945a7.4,7.4,0,0,1-1.436,1.29A11.6,11.6,0,0,1,94.814,62.5a18.88,18.88,0,0,1-3.423.97,23.79,23.79,0,0,1-4.558.381,13.508,13.508,0,0,1-5.825-1.234,12.839,12.839,0,0,1-4.478-3.475,15.93,15.93,0,0,1-2.877-5.439,23.235,23.235,0,0,1-1.022-7.129V41.062a25.3,25.3,0,0,1,.895-6.9,15.391,15.391,0,0,1,2.637-5.312,11.957,11.957,0,0,1,4.266-3.414,13.227,13.227,0,0,1,5.825-1.22,14.773,14.773,0,0,1,5.213.819,10.718,10.718,0,0,1,3.649,2.185,9.948,9.948,0,0,1,2.312,3.188A15.23,15.23,0,0,1,98.6,34.225h3.777a16.671,16.671,0,0,0-1.535-5.251,13.371,13.371,0,0,0-3.174-4.205,14.3,14.3,0,0,0-4.864-2.792,20.068,20.068,0,0,0-6.593-.994A17.693,17.693,0,0,0,78.977,22.4a15.379,15.379,0,0,0-5.462,4.036,18.013,18.013,0,0,0-3.471,6.343,27.161,27.161,0,0,0-1.206,8.349v5.453a25.574,25.574,0,0,0,1.328,8.5,18.855,18.855,0,0,0,3.715,6.456,16.235,16.235,0,0,0,5.684,4.1,18.091,18.091,0,0,0,7.266,1.432,27.655,27.655,0,0,0,6.178-.617,22.811,22.811,0,0,0,4.554-1.507,12.851,12.851,0,0,0,3.08-1.945,11.592,11.592,0,0,0,1.775-1.879V45.159H86.583Z" transform="translate(255.324 77.826)" fill="#fff"/>
        <path id="Pfad_11087" data-name="Pfad 11087" d="M101.682,27.742a11.719,11.719,0,0,0-4.149-3.174,13.259,13.259,0,0,0-5.637-1.14,12.73,12.73,0,0,0-5.439,1.2,14.109,14.109,0,0,0-4.544,3.4,16.418,16.418,0,0,0-3.127,5.331,20.154,20.154,0,0,0-1.149,6.974v1.323a18.738,18.738,0,0,0,1.107,6.564,15.718,15.718,0,0,0,3.1,5.161,14,14,0,0,0,4.728,3.381,14.559,14.559,0,0,0,6,1.22,16.6,16.6,0,0,0,4.064-.461,13.644,13.644,0,0,0,3.268-1.262,11.455,11.455,0,0,0,2.538-1.879,16.136,16.136,0,0,0,1.931-2.279l-2.317-1.756A11.625,11.625,0,0,1,97.948,53.8a12.053,12.053,0,0,1-5.218,1.074,10.321,10.321,0,0,1-4.652-1.031,11.053,11.053,0,0,1-3.607-2.816,12.939,12.939,0,0,1-2.336-4.205,15.626,15.626,0,0,1-.834-5.161v-.706h23.78V38.7a20.914,20.914,0,0,0-.862-6.126,14.089,14.089,0,0,0-2.538-4.836m-.268,10.073H81.429a16.979,16.979,0,0,1,1.187-4.61,12.079,12.079,0,0,1,2.241-3.551,9.705,9.705,0,0,1,3.155-2.284,9.434,9.434,0,0,1,3.885-.8,8.806,8.806,0,0,1,4.1.914,8.9,8.9,0,0,1,2.943,2.411,10.738,10.738,0,0,1,1.789,3.471,14.6,14.6,0,0,1,.683,4.05Z" transform="translate(287.959 86.898)" fill="#fff"/>
        <path id="Pfad_11088" data-name="Pfad 11088" d="M107.311,26.263a8.116,8.116,0,0,0-3.348-2.157,13.688,13.688,0,0,0-4.459-.678,12.634,12.634,0,0,0-3.4.447,12.121,12.121,0,0,0-5.5,3.277,15.609,15.609,0,0,0-1.987,2.59l-.118-5.7H84.99V57.37h3.668V34.551a14.428,14.428,0,0,1,1.417-2.943A11.768,11.768,0,0,1,92.2,29.069a9.589,9.589,0,0,1,2.835-1.775A9.228,9.228,0,0,1,98.6,26.63a11.173,11.173,0,0,1,3.259.447,5.688,5.688,0,0,1,2.472,1.493,6.917,6.917,0,0,1,1.573,2.774,14.385,14.385,0,0,1,.551,4.313V57.37h3.673V35.69a18.816,18.816,0,0,0-.73-5.623,9.732,9.732,0,0,0-2.086-3.8" transform="translate(315.228 86.895)" fill="#fff"/>
        <path id="Pfad_11089" data-name="Pfad 11089" d="M96.355,21.113H92.531V65.957H118.5v-3.2H96.355Z" transform="translate(343.197 78.31)" fill="#fff"/>
        <rect id="Rechteck_3808" data-name="Rechteck 3808" width="3.697" height="33.326" transform="translate(468.531 110.944)" fill="#fff"/>
        <path id="Pfad_11090" data-name="Pfad 11090" d="M106.07,44a12.8,12.8,0,0,1,1.295-2.557,9.513,9.513,0,0,1,1.968-2.185,9.233,9.233,0,0,1,2.769-1.526,11.1,11.1,0,0,1,3.7-.57,8.351,8.351,0,0,1,7.468,3.974,13.426,13.426,0,0,1,1.747,4.375,25.1,25.1,0,0,1,.556,5.42v.645a24.778,24.778,0,0,1-.57,5.439,13.367,13.367,0,0,1-1.775,4.356,9.1,9.1,0,0,1-1.9,2.053l2.533,2.533a11.791,11.791,0,0,0,2.077-2.166,16.332,16.332,0,0,0,2.482-5.345,26.27,26.27,0,0,0,.848-6.87V50.93a27.006,27.006,0,0,0-.848-7.007,15.81,15.81,0,0,0-2.5-5.345A11.333,11.333,0,0,0,121.9,35.16a11.812,11.812,0,0,0-5.415-1.2,12.516,12.516,0,0,0-6.192,1.432,11.786,11.786,0,0,0-4.219,4.017V20.59H102.4V44.5l3.668,3.668Z" transform="translate(379.809 76.368)" fill="#fff"/>
        <path id="Pfad_11091" data-name="Pfad 11091" d="M22.754,74.605l-3.447-3.447L44.849,45.607,19.307,20.061l3.447-3.447L51.748,45.607Z" transform="translate(71.61 61.621)" fill="#50c1ff"/>
        <path id="Pfad_11092" data-name="Pfad 11092" d="M55.52,24.691l-3.447-3.447L25.953,47.36,52.073,73.485l3.447-3.447L32.856,47.36Z" transform="translate(96.258 78.793)" fill="#fff"/>
        <path id="Pfad_11093" data-name="Pfad 11093" d="M58.832,23.47l-3.447-3.447L23.51,51.889,55.385,83.764l3.447-3.452L30.413,51.889Z" transform="translate(87.198 74.265)" fill="#fff"/>
        <path id="Pfad_11094" data-name="Pfad 11094" d="M107,24.626a3.974,3.974,0,1,1-3.974-3.974A3.975,3.975,0,0,1,107,24.626" transform="translate(367.395 76.598)" fill="#50c1ff"/>
      </g>
    </g>
  </g>
</svg>
