<svg xmlns="http://www.w3.org/2000/svg" xmlns:xlink="http://www.w3.org/1999/xlink" width="600" height="236.26" viewBox="0 0 600 236.26">
  <defs>
    <clipPath id="clip-path">
      <rect id="Rechteck_3812" data-name="Rechteck 3812" width="600" height="236.265" fill="none"/>
    </clipPath>
    <clipPath id="clip-CodeGenLib_logo_positive">
      <rect width="600" height="236.26"/>
    </clipPath>
  </defs>
  <g id="CodeGenLib_logo_positive" clip-path="url(#clip-CodeGenLib_logo_positive)">
    <g id="Gruppe_10549" data-name="Gruppe 10549">
      <g id="Gruppe_10548" data-name="Gruppe 10548" clip-path="url(#clip-path)">
        <path id="Pfad_11095" data-name="Pfad 11095" d="M55.261,20.976a16.1,16.1,0,0,0-12.536,5.312q-4.817,5.319-4.813,13.51v8.533q0,8.222,4.869,13.506A16.458,16.458,0,0,0,55.473,67.12q7.7,0,12.234-4.177a13.833,13.833,0,0,0,4.4-10.949l-.066-.184h-7.21q0,4.521-2.383,6.932-2.388,2.395-6.979,2.4a8.751,8.751,0,0,1-7.393-3.617,14.932,14.932,0,0,1-2.708-9.192v-8.6A15.006,15.006,0,0,1,48.033,30.6a8.523,8.523,0,0,1,7.228-3.621q4.7,0,7.148,2.388,2.423,2.388,2.425,6.885h7.238l.066-.184q.127-7.021-4.422-11.062T55.261,20.976" transform="translate(140.623 77.802)"/>
        <path id="Pfad_11096" data-name="Pfad 11096" d="M60.667,23.429q-7.078,0-11.165,4.761a15.975,15.975,0,0,0-3.033,5.382l6.48,6.484a14.509,14.509,0,0,1,1.888-7.525,6.39,6.39,0,0,1,5.83-3.1,6.541,6.541,0,0,1,5.929,3.1A14.443,14.443,0,0,1,68.559,40.4v.645A14.482,14.482,0,0,1,66.6,48.981a6.371,6.371,0,0,1-2.43,2.289l4.61,4.615a13.23,13.23,0,0,0,3.16-2.59Q76,48.561,76.009,41.046V40.4q0-7.452-4.073-12.211-4.09-4.761-11.269-4.761" transform="translate(172.358 86.9)"/>
        <path id="Pfad_11097" data-name="Pfad 11097" d="M82.909,20.433H75.421V38.761a10.933,10.933,0,0,0-3.706-3.122,10.461,10.461,0,0,0-4.86-1.1,11.084,11.084,0,0,0-9.611,4.879q-3.4,4.888-3.409,12.865v.645q0,7.268,3.409,11.735A11.364,11.364,0,0,0,66.8,69.134a10.753,10.753,0,0,0,5.26-1.253,10.988,10.988,0,0,0,3.88-3.617l.895,4.219h6.07Zm-14.2,42.6a6.183,6.183,0,0,1-5.618-2.741,13.448,13.448,0,0,1-1.766-7.36v-.645a16.98,16.98,0,0,1,1.808-8.392,6.035,6.035,0,0,1,5.642-3.221A7.369,7.369,0,0,1,72.718,41.7a7.924,7.924,0,0,1,2.7,2.877V59.123a7.692,7.692,0,0,1-2.694,2.891,7.47,7.47,0,0,1-4.022,1.017" transform="translate(199.679 75.788)"/>
        <path id="Pfad_11098" data-name="Pfad 11098" d="M76.054,23.429a13.262,13.262,0,0,0-10.52,4.728,17.829,17.829,0,0,0-4.111,12.088v1.234q0,7.332,4.111,11.933t11.415,4.61a21.21,21.21,0,0,0,7.238-1.14,16.011,16.011,0,0,0,5.053-2.807l-2.439-4.9A14.986,14.986,0,0,1,82.661,51.3a16.647,16.647,0,0,1-5.279.739c-2.731,0-4.784-.848-6.136-2.557a10.947,10.947,0,0,1-2.152-6.649l.057-.155H89.762V38.649q0-6.936-3.452-11.076T76.148,23.429h-.094M69.334,37.2l-.057-.155a10.463,10.463,0,0,1,2.18-5.5,5.793,5.793,0,0,1,4.69-2.11,5.545,5.545,0,0,1,4.728,1.983,8.443,8.443,0,0,1,1.493,5.194V37.2Z" transform="translate(227.824 86.9)"/>
        <path id="Pfad_11099" data-name="Pfad 11099" d="M86.212,20.983A17.694,17.694,0,0,0,78.974,22.4a15.311,15.311,0,0,0-5.463,4.031,18.036,18.036,0,0,0-3.471,6.348,26.971,26.971,0,0,0-1.2,8.345v5.458a25.548,25.548,0,0,0,1.323,8.5,18.856,18.856,0,0,0,3.715,6.456,16.235,16.235,0,0,0,5.684,4.1,18.011,18.011,0,0,0,7.266,1.432,27.655,27.655,0,0,0,6.178-.617,22.709,22.709,0,0,0,4.554-1.507,13.094,13.094,0,0,0,3.08-1.94,11.6,11.6,0,0,0,1.775-1.884V45.164H86.579v3.2H98.63V59.946a7.711,7.711,0,0,1-1.436,1.295A11.531,11.531,0,0,1,94.806,62.5a18.392,18.392,0,0,1-3.414.97,23.876,23.876,0,0,1-4.563.381,13.47,13.47,0,0,1-5.82-1.229,12.772,12.772,0,0,1-4.483-3.48,16.012,16.012,0,0,1-2.877-5.439,23.084,23.084,0,0,1-1.022-7.125V41.067a25.27,25.27,0,0,1,.895-6.9,15.309,15.309,0,0,1,2.637-5.312,11.919,11.919,0,0,1,4.266-3.419,13.227,13.227,0,0,1,5.825-1.215,14.761,14.761,0,0,1,5.213.815,10.939,10.939,0,0,1,3.654,2.185,9.986,9.986,0,0,1,2.307,3.188A15.266,15.266,0,0,1,98.6,34.23h3.781a16.792,16.792,0,0,0-1.54-5.255,13.408,13.408,0,0,0-3.169-4.2A14.286,14.286,0,0,0,92.8,21.981a19.941,19.941,0,0,0-6.593-1" transform="translate(255.334 77.828)"/>
        <path id="Pfad_11100" data-name="Pfad 11100" d="M91.9,23.429a12.745,12.745,0,0,0-5.439,1.2,14.091,14.091,0,0,0-4.54,3.4,16.335,16.335,0,0,0-3.127,5.331,20.043,20.043,0,0,0-1.154,6.974v1.323a18.737,18.737,0,0,0,1.107,6.564,15.718,15.718,0,0,0,3.1,5.161,14.07,14.07,0,0,0,4.733,3.381,14.537,14.537,0,0,0,6,1.22,16.636,16.636,0,0,0,4.069-.461,13.8,13.8,0,0,0,3.268-1.262,11.426,11.426,0,0,0,2.534-1.879,15.829,15.829,0,0,0,1.931-2.279l-2.317-1.756A11.572,11.572,0,0,1,97.952,53.8a12.06,12.06,0,0,1-5.222,1.074,10.321,10.321,0,0,1-4.653-1.031,10.986,10.986,0,0,1-3.6-2.816,13.036,13.036,0,0,1-2.34-4.205,15.625,15.625,0,0,1-.834-5.161v-.706h23.781V38.705a21.076,21.076,0,0,0-.857-6.127,14.1,14.1,0,0,0-2.543-4.836,11.677,11.677,0,0,0-4.149-3.174,13.259,13.259,0,0,0-5.637-1.14M81.428,37.815a16.978,16.978,0,0,1,1.187-4.61,12.09,12.09,0,0,1,2.246-3.551,9.687,9.687,0,0,1,3.15-2.284,9.434,9.434,0,0,1,3.885-.8,8.648,8.648,0,0,1,7.045,3.325,10.841,10.841,0,0,1,1.794,3.471,14.949,14.949,0,0,1,.683,4.05v.4Z" transform="translate(287.963 86.9)"/>
        <path id="Pfad_11101" data-name="Pfad 11101" d="M99.5,23.429a12.449,12.449,0,0,0-3.4.447,12.1,12.1,0,0,0-2.986,1.276,12.244,12.244,0,0,0-2.515,2,15.609,15.609,0,0,0-1.987,2.59l-.118-5.7H84.989V57.372h3.668V34.547A14.427,14.427,0,0,1,90.075,31.6,11.883,11.883,0,0,1,92.2,29.066a9.785,9.785,0,0,1,2.835-1.775,9.323,9.323,0,0,1,3.569-.659,11.329,11.329,0,0,1,3.254.443,5.7,5.7,0,0,1,2.472,1.5,6.885,6.885,0,0,1,1.573,2.774,14.349,14.349,0,0,1,.556,4.314V57.372h3.668V35.691a19.016,19.016,0,0,0-.725-5.627,9.718,9.718,0,0,0-2.091-3.8,8.039,8.039,0,0,0-3.348-2.157,13.668,13.668,0,0,0-4.46-.678" transform="translate(315.232 86.9)"/>
        <path id="Pfad_11102" data-name="Pfad 11102" d="M96.355,21.113H92.531V65.958H118.5v-3.2H96.355Z" transform="translate(343.206 78.312)"/>
        <rect id="Rechteck_3811" data-name="Rechteck 3811" width="3.697" height="33.326" transform="translate(468.541 110.946)"/>
        <path id="Pfad_11103" data-name="Pfad 11103" d="M106.07,20.59H102.4V44.5l3.668,3.668V44a12.676,12.676,0,0,1,1.295-2.557,9.513,9.513,0,0,1,1.968-2.185,9.234,9.234,0,0,1,2.769-1.526,11.1,11.1,0,0,1,3.7-.57,8.762,8.762,0,0,1,4.436,1.06,8.871,8.871,0,0,1,3.033,2.91,13.5,13.5,0,0,1,1.747,4.379,25.062,25.062,0,0,1,.556,5.415v.65A24.7,24.7,0,0,1,125,57.01a13.393,13.393,0,0,1-1.775,4.361,8.976,8.976,0,0,1-1.9,2.048l2.534,2.538a11.793,11.793,0,0,0,2.077-2.166,16.424,16.424,0,0,0,2.482-5.345,26.3,26.3,0,0,0,.848-6.871v-.65a26.97,26.97,0,0,0-.848-7,15.878,15.878,0,0,0-2.5-5.35A11.368,11.368,0,0,0,121.9,35.16a11.813,11.813,0,0,0-5.415-1.2,12.465,12.465,0,0,0-6.192,1.432,11.786,11.786,0,0,0-4.219,4.017Z" transform="translate(379.819 76.37)"/>
        <path id="Pfad_11104" data-name="Pfad 11104" d="M22.754,74.606l-3.447-3.447L44.849,45.608,19.307,20.061l3.447-3.447L51.748,45.608Z" transform="translate(71.612 61.622)" fill="#5fb4f9"/>
        <path id="Pfad_11105" data-name="Pfad 11105" d="M52.074,21.243,25.952,47.365,52.074,73.491l3.447-3.452L32.856,47.365,55.521,24.69Z" transform="translate(96.259 78.793)"/>
        <path id="Pfad_11106" data-name="Pfad 11106" d="M55.385,20.022,23.509,51.894,55.385,83.765l3.447-3.447L30.413,51.894,58.832,23.47Z" transform="translate(87.199 74.265)"/>
        <path id="Pfad_11107" data-name="Pfad 11107" d="M107,24.626a3.974,3.974,0,1,1-3.974-3.974A3.975,3.975,0,0,1,107,24.626" transform="translate(367.404 76.6)" fill="#5fb4f9"/>
      </g>
    </g>
  </g>
</svg>
